<svg width="24" height="24" viewBox="0 0 24 24" fill="none" xmlns="http://www.w3.org/2000/svg">
<g clip-path="url(#clip0)">
<path d="M22.7932 3.08582L21.9142 2.2068C20.3048 0.597415 17.6955 0.597415 16.0861 2.20676C16.0861 2.20676 16.0861 2.20676 16.0861 2.2068L4.8539 13.439C3.7159 14.577 3.7159 16.4221 4.8539 17.5601L5.4399 18.1461C6.59904 19.2319 8.40184 19.2319 9.56098 18.1461L17.8541 9.85295C18.0527 9.66109 18.0582 9.34458 17.8664 9.14592C17.6745 8.94731 17.358 8.94183 17.1594 9.13364C17.1552 9.13768 17.1511 9.14175 17.1471 9.14592L8.85396 17.4391C8.09232 18.1517 6.90856 18.1517 6.14692 17.4391L5.56093 16.8531C4.8134 16.1056 4.81331 14.8937 5.56074 14.1462C5.56079 14.1462 5.56088 14.1461 5.56093 14.146L16.7931 2.91378C18.029 1.73664 19.9713 1.73664 21.2071 2.91378L22.0862 3.7928C23.3046 5.0119 23.3046 6.98776 22.0862 8.20686L9.56094 20.7321C7.87045 22.422 5.13033 22.422 3.43985 20.7321L2.26781 19.5611C0.577936 17.8706 0.577936 15.1305 2.26781 13.44L11.854 3.85383C12.0526 3.66197 12.0582 3.34546 11.8663 3.1468C11.6744 2.94819 11.3579 2.94266 11.1593 3.13452C11.1551 3.13855 11.151 3.14263 11.147 3.1468L1.56083 12.732C-0.519943 14.8127 -0.519943 18.1863 1.56078 20.267C1.56078 20.2671 1.56083 20.2671 1.56083 20.2671L2.73286 21.4391C4.81359 23.5199 8.18715 23.5199 10.2679 21.4392C10.2679 21.4392 10.268 21.4392 10.268 21.4391L22.7932 8.91389C24.4026 7.30455 24.4026 4.69521 22.7932 3.08582C22.7932 3.08582 22.7932 3.08582 22.7932 3.08582Z" fill="#CFD8DC"/>
<path d="M6.49947 23.0002C5.08551 23.0033 3.72893 22.4413 2.73141 21.4392L1.56036 20.2681C-0.520413 18.1874 -0.52046 14.8138 1.56031 12.7331L1.56036 12.733L11.1466 3.1468C11.3384 2.94819 11.6549 2.94266 11.8536 3.13452C12.0522 3.32638 12.0577 3.64289 11.8659 3.84155C11.8618 3.84572 11.8578 3.8498 11.8536 3.85383L2.26739 13.439C0.577512 15.1295 0.577512 17.8696 2.26739 19.5601L3.43942 20.7321C5.1299 22.422 7.87003 22.422 9.56051 20.7321L22.0857 8.20691C23.3042 6.98781 23.3042 5.01195 22.0857 3.79285L21.2067 2.91383C19.9708 1.73668 18.0285 1.73668 16.7927 2.91383L5.56041 14.146C4.81288 14.8934 4.81279 16.1053 5.56022 16.8528C5.56027 16.8529 5.56036 16.853 5.56041 16.853L6.14641 17.439C6.90804 18.1517 8.0918 18.1517 8.85344 17.439L17.1466 9.14588C17.3384 8.94727 17.6549 8.94173 17.8536 9.1336C18.0522 9.32546 18.0577 9.64197 17.8659 9.84063C17.8618 9.8448 17.8578 9.84887 17.8536 9.85291L9.56051 18.1461C8.40137 19.2319 6.59857 19.2319 5.43942 18.1461L4.85343 17.5601C3.71543 16.4221 3.71543 14.577 4.85343 13.439L16.0856 2.2068C17.695 0.597415 20.3043 0.597415 21.9137 2.20676C21.9137 2.20676 21.9137 2.20676 21.9137 2.2068L22.7928 3.08582C24.4021 4.69521 24.4021 7.3045 22.7928 8.91389C22.7928 8.91389 22.7928 8.91389 22.7928 8.91394L10.2675 21.4392C9.27002 22.4413 7.91344 23.0033 6.49947 23.0002Z" fill="black"/>
</g>
<defs>
<clipPath id="clip0">
<rect width="24" height="24" fill="white"/>
</clipPath>
</defs>
</svg>
