<svg width="10" height="20" viewBox="0 0 10 20" fill="none" xmlns="http://www.w3.org/2000/svg">
<path fill-rule="evenodd" clip-rule="evenodd" d="M2.11599 10C2.11599 10 2.11599 10.4167 2.11599 10.625V20H6.34796C6.34796 17.5 6.34796 15 6.34796 12.5V10C6.34796 10 8.88715 10 9.09875 10L9.52194 6.66667H6.34796C6.34796 6.25 6.34796 5.625 6.34796 5.20833C6.34796 4.79167 6.34796 4.16667 6.55956 3.95833L9.31034 3.75V0.208333C8.88715 0 8.25235 0 7.61755 0C6.98276 0 6.55956 0 5.92476 0C4.86677 0 4.02038 0.416667 3.38558 0.833333C2.53918 2.29167 2.11599 1.25 2.11599 6.66667H0V10.2083H2.11599V10Z" fill="black"/>
</svg>
