<svg width="87" height="30" viewBox="0 0 87 30" fill="none" xmlns="http://www.w3.org/2000/svg">
<g clip-path="url(#clip0)">
<path d="M30.1824 0L26.7959 5.50303H29.1791L33.8779 0H30.1824Z" fill="black"/>
<path d="M5.4988 23.9678L12.0347 23.155V15.3492H17.5377V8.87256H0V15.3492H5.4988V23.9678Z" fill="black"/>
<path d="M25.9831 21.4195L27.3334 17.5377L28.5695 21.0935L35.2112 20.2681L31.2533 8.87256H23.4136L18.7402 22.3169L25.9831 21.4195Z" fill="black"/>
<path d="M42.9659 19.3029L49.4976 18.4902V15.3492H55.0006V8.87256H37.4629V15.3492H42.9659V19.3029Z" fill="black"/>
<path d="M64.0596 16.6784C64.1993 16.4921 64.3517 16.3101 64.521 16.1366C65.465 15.1926 66.5571 14.7396 67.8948 14.7396C69.0504 14.7396 70.0367 15.0952 70.9045 15.8275L78.2955 14.909C77.741 13.6644 76.9367 12.5215 75.8911 11.4886C73.673 9.27048 71.0273 8.14447 67.8948 8.14447C64.7665 8.14447 62.1208 9.27048 59.9027 11.4886C58.1671 13.2242 57.1046 15.2645 56.7363 17.5928L64.0596 16.6784Z" fill="black"/>
<path d="M84.0441 30C82.5245 30 81.3096 28.8147 81.3096 27.295C81.3096 25.805 82.5245 24.5562 84.0441 24.5562C85.5342 24.5562 86.7787 25.805 86.7787 27.295C86.7787 28.8147 85.5342 30 84.0441 30Z" fill="black"/>
</g>
<defs>
<clipPath id="clip0">
<rect width="86.7786" height="30" fill="white"/>
</clipPath>
</defs>
</svg>
