<svg width="21" height="20" viewBox="0 0 21 20" fill="none" xmlns="http://www.w3.org/2000/svg">
<path fill-rule="evenodd" clip-rule="evenodd" d="M17.5 0C15 0 12.5 0 10 0C7.5 0 5 0 2.5 0C1.04167 0 0 0.833333 0 2.5C0 7.5 0 12.5 0 17.5C0 18.9583 1.04167 20 2.5 20C7.5 20 12.5 20 17.7083 20C19.1667 20 20.2083 18.9583 20.2083 17.5C20.2083 12.5 20.2083 7.5 20.2083 2.5C20 1.04167 18.9583 0 17.5 0ZM14.5833 2.29167C15.4167 2.29167 16.0417 2.29167 16.875 2.29167C17.2917 2.29167 17.7083 2.5 17.7083 3.125C17.7083 3.95833 17.7083 4.58333 17.7083 5.41667C17.7083 5.83333 17.5 6.25 16.875 6.25C16.4583 6.25 16.0417 6.25 15.8333 6.25C15.4167 6.25 15.2083 6.25 14.7917 6.25C14.375 6.25 13.9583 6.04167 13.9583 5.41667C13.9583 4.58333 13.9583 3.95833 13.9583 3.125C13.9583 2.70833 14.1667 2.29167 14.5833 2.29167ZM10 6.25C12.0833 6.25 13.75 7.91667 13.75 10C13.75 12.0833 12.0833 13.75 10 13.75C7.91667 13.75 6.25 12.0833 6.25 10C6.25 7.91667 7.91667 6.25 10 6.25ZM17.7083 8.95833C17.7083 11.4583 17.7083 13.9583 17.7083 16.4583C17.7083 17.2917 17.5 17.5 16.6667 17.5C12.2917 17.5 7.70833 17.5 3.33333 17.5C2.70833 17.7083 2.29167 17.5 2.29167 16.6667C2.29167 13.9583 2.29167 11.4583 2.29167 8.75V8.54167C2.91667 8.54167 3.33333 8.54167 3.95833 8.54167C3.54167 10.8333 4.16667 12.9167 5.83333 14.5833C7.29167 15.8333 8.75 16.25 10.4167 16.25C13.75 16.0417 16.875 12.9167 16.0417 8.54167C16.6667 8.54167 17.0833 8.54167 17.7083 8.54167C17.7083 8.75 17.7083 8.95833 17.7083 8.95833Z" fill="black"/>
</svg>
